<svg aria-hidden="true" style="position: absolute; width: 0; height: 0; overflow: hidden;" version="1.1" xmlns="http://www.w3.org/2000/svg" xmlns:xlink="http://www.w3.org/1999/xlink">
<defs>
<symbol id="menu-open-icon" viewBox="0 0 32 32">
<path fill="#fff" style="fill: var(--color1, #fff)" d="M2.667 7.993c0-0.733 0.595-1.327 1.327-1.327h10.68c0.733 0 1.327 0.594 1.327 1.327s-0.594 1.327-1.327 1.327h-10.68c-0.733 0-1.327-0.594-1.327-1.327v0zM2.667 16c0-0.733 0.595-1.327 1.327-1.327h24.013c0.733 0 1.327 0.594 1.327 1.327s-0.594 1.327-1.327 1.327h-24.013c-0.733 0-1.327-0.594-1.327-1.327v0zM3.993 22.68c-0.733 0-1.327 0.594-1.327 1.327s0.594 1.327 1.327 1.327h16.013c0.733 0 1.327-0.594 1.327-1.327s-0.594-1.327-1.327-1.327h-16.013z"></path>
</symbol>
<symbol id="icon-logo" viewBox="0 0 30 32">
<path d="M20.989 15.674l-3.46-7.927-0.755-0.523-0.885-0.282-1.197-0.322-1.405 0.604-0.937 0.523 3.538 7.927h5.1z"></path>
<path d="M8.571 13.023l3.46 7.945 0.755 0.524 0.885 0.282 1.197 0.323 1.405-0.605 0.937-0.524-3.538-7.945h-5.1z"></path>
<path d="M12.166 7.851l-5.372 7.765 5.372 0.058 3.883-7.823c0.273-0.8 1.126-0.333 1.518 0-1.677-3.073-4.3-1.28-5.402 0z"></path>
<path d="M17.372 20.867l5.372-7.765-5.372-0.058-3.883 7.823c-0.273 0.8-1.126 0.333-1.518 0 1.677 3.073 4.3 1.28 5.402 0z"></path>
</symbol>
</defs>
</svg>
